<svg xmlns="http://www.w3.org/2000/svg" xmlns:xlink="http://www.w3.org/1999/xlink" width="900" zoomAndPan="magnify" viewBox="0 0 675 675.000002" height="900" preserveAspectRatio="xMidYMid meet" version="1.0"><defs><clipPath id="adc9bd9c25"><path d="M 0.5 0 L 674.5 0 L 674.5 674 L 0.5 674 Z M 0.5 0 " clip-rule="nonzero"/></clipPath></defs><g clip-path="url(#adc9bd9c25)"><path fill="#ffffff" d="M 0.5 0 L 674.5 0 L 674.5 674 L 0.5 674 Z M 0.5 0 " fill-opacity="1" fill-rule="nonzero"/><path fill="#ffffff" d="M 0.5 0 L 674.5 0 L 674.5 674 L 0.5 674 Z M 0.5 0 " fill-opacity="1" fill-rule="nonzero"/></g><path fill="#4e82ab" d="M 453.050781 195.9375 C 460.519531 203.410156 460.519531 215.519531 453.050781 222.992188 L 197.988281 478.054688 C 194.398438 481.644531 189.535156 483.65625 184.460938 483.65625 C 179.386719 483.65625 174.519531 481.644531 170.933594 478.054688 L 68.910156 376.027344 C 61.4375 368.558594 61.4375 356.449219 68.910156 348.976562 C 76.378906 341.507812 88.492188 341.507812 95.960938 348.976562 L 184.460938 437.472656 L 426 195.9375 C 433.46875 188.46875 445.578125 188.46875 453.050781 195.9375 Z M 453.050781 195.9375 " fill-opacity="1" fill-rule="evenodd"/><path fill="#4e82ab" d="M 606.089844 195.9375 C 613.558594 203.40625 613.558594 215.519531 606.089844 222.992188 L 351.039062 478.054688 C 343.566406 485.523438 331.457031 485.523438 323.984375 478.058594 L 285.714844 439.796875 C 278.242188 432.328125 278.242188 420.214844 285.710938 412.742188 C 293.179688 405.273438 305.292969 405.269531 312.765625 412.738281 L 337.507812 437.476562 L 579.035156 195.9375 C 586.503906 188.46875 598.617188 188.46875 606.089844 195.9375 Z M 606.089844 195.9375 " fill-opacity="1" fill-rule="evenodd"/><path fill="#3c7099" d="M 492.089844 336.996094 L 351.039062 478.054688 C 343.566406 485.523438 331.457031 485.523438 323.984375 478.058594 L 285.714844 439.796875 C 278.242188 432.328125 278.242188 420.214844 285.710938 412.742188 C 293.179688 405.273438 305.292969 405.269531 312.765625 412.738281 L 337.507812 437.476562 L 437.984375 336.996094 Z M 492.089844 336.996094 " fill-opacity="1" fill-rule="evenodd"/><path fill="#3c7099" d="M 339.046875 336.996094 L 197.988281 478.054688 C 194.398438 481.644531 189.535156 483.65625 184.460938 483.65625 C 179.386719 483.65625 174.519531 481.644531 170.933594 478.054688 L 68.910156 376.027344 C 61.4375 368.558594 61.4375 356.449219 68.910156 348.976562 C 76.378906 341.507812 88.492188 341.507812 95.960938 348.976562 L 184.460938 437.472656 L 284.9375 336.996094 Z M 339.046875 336.996094 " fill-opacity="1" fill-rule="evenodd"/></svg>