<svg xmlns="http://www.w3.org/2000/svg" width="47.555" height="53.258" viewBox="0 0 47.555 53.258">
  <g id="vecticum_v" data-name="vecticum v" transform="translate(1081.93 8.497)">
    <path id="Subtraction_35" data-name="Subtraction 35" d="M12.535,50.83v0L2.869,34.744a5.571,5.571,0,1,1,9.55-5.738L18.7,39.455l-5.325,9.223a7.57,7.57,0,0,0-.838,2.15Z" transform="translate(-1084.001 -13.274)" fill="#3c7099"/>
    <path id="Subtraction_36" data-name="Subtraction 36" d="M7.6,55.3a5.574,5.574,0,0,1-4.819-8.357l21.767-37.7a7.529,7.529,0,0,0,7.29,5.941,7.358,7.358,0,0,0,2.369-.389L12.434,52.517A5.591,5.591,0,0,1,7.6,55.3Z" transform="translate(-1071.682 -10.542)" fill="#c81f6a"/>
    <g id="Group_120" data-name="Group 120" transform="translate(-1076.266 -2.927)">
      <line id="Line_30" data-name="Line 30" x1="24.212" y2="42.209" transform="translate(12.213)" fill="none"/>
      <line id="Line_29" data-name="Line 29" x1="12.213" y1="20.998" transform="translate(0 21.212)" fill="none"/>
      <line id="Line_28" data-name="Line 28" transform="translate(0 21.212)" fill="none"/>
    </g>
    <ellipse id="Ellipse_447" data-name="Ellipse 447" cx="5.464" cy="5.571" rx="5.464" ry="5.571" transform="translate(-1045.303 -8.497)" fill="#f16f49"/>
  </g>
</svg>
