<?xml version="1.0" encoding="utf-8"?>
<!-- Generator: Adobe Illustrator 22.1.0, SVG Export Plug-In . SVG Version: 6.00 Build 0)  -->
<svg version="1.1" id="Layer_1" xmlns="http://www.w3.org/2000/svg" xmlns:xlink="http://www.w3.org/1999/xlink" x="0px" y="0px"
	 width="1580.7px" height="256.6px" viewBox="0 0 1580.7 256.6" style="enable-background:new 0 0 1580.7 256.6;"
	 xml:space="preserve">
<style type="text/css">
	.st0{fill:#45B9C9;}
	.st1{fill:#76797B;}
	.st2{fill-rule:evenodd;clip-rule:evenodd;fill:#45B9C9;}
	.st3{fill-rule:evenodd;clip-rule:evenodd;fill:#FFFFFF;}
</style>
<g>
	<path class="st0" d="M1032.2,41.8v108.1c0,12.2,2.1,22.7,6.4,31.3c4.3,8.6,10.8,15.2,19.4,19.8c8.7,4.5,19.5,6.9,32.7,6.9
		c7.5-0.1,13.9-1.1,18.9-3.2c5-2.1,8.8-5.1,11.4-9c2.6-3.9,3.9-8.5,3.9-13.9v-13.9h-1.5c-3,1.9-7,3.3-11.7,4.2
		c-4.7,0.9-10.2,1.4-16.4,1.4c-5.2,0-9.7-0.9-13.3-2.8c-3.7-1.8-6.5-4.9-8.4-9c-1.9-4.2-2.9-9.6-2.9-16.3V84.1h31
		c5.3-0.1,9.7-1.1,13.1-3c3.4-1.9,6-4.3,7.6-7.2c1.6-2.8,2.5-5.6,2.5-8.4v-16h-54.2V0h-9c-3.1,0-6.2,1.1-9.5,3.1
		c-3.2,2-6.1,4.5-8.8,7.6c-2.1,2.4-3.9,4.7-5.3,6.9c-1.4,2.1-2.6,4.3-3.5,6.6c-0.9,2.3-1.6,4.8-1.9,7.6
		C1032.4,34.7,1032.2,38,1032.2,41.8L1032.2,41.8z M998.8,152.8v-36c-0.1-13.4-1.9-24.6-5.4-33.7c-3.6-9-8.4-16.3-14.6-21.6
		c-6.1-5.3-13.2-9.1-21.1-11.5c-7.9-2.3-16.2-3.4-25-3.4c-10.2,0.1-19,1.3-26.2,3.5c-7.2,2.3-13.1,5.3-17.6,9.1
		c-4.5,3.8-7.8,7.9-9.9,12.3c-2.1,4.5-3.1,8.9-3.1,13.3v12.5h1.5c1.4-1.8,3.5-3.8,6.2-5.9c2.7-2.1,6.1-4,10.2-5.8
		c4.1-1.8,8.9-3.3,14.4-4.5c5.5-1.1,11.8-1.8,18.8-1.8c7.7-0.1,14,0.8,19,2.6c5,1.7,8.6,4.7,11,8.9c2.4,4.2,3.6,10,3.6,17.2v2H947
		c-14.3,0-26.4,1.3-36.3,3.7c-9.9,2.5-18,5.9-24,10.3c-6.1,4.4-10.5,9.6-13.3,15.6c-2.7,5.9-4.1,12.4-4.1,19.4
		c0.1,7.2,1.6,13.8,4.6,19.9c3,6,7.2,11.3,12.8,15.7c5.5,4.4,12.1,7.9,19.8,10.3c7.6,2.5,16.1,3.7,25.4,3.7h7.8
		c8.7-0.1,16.7-1.4,23.9-4.1c7.2-2.7,13.4-6.5,18.7-11.5c5.2-4.9,9.3-10.8,12.2-17.7C997.3,168.7,998.8,161.1,998.8,152.8
		L998.8,152.8z M960.9,153.1c0,8-2,14-6.1,18c-4.2,4-10.4,6-18.8,6c-8.6-0.1-15.2-1.8-19.9-5.1c-4.6-3.4-7-8.2-7.1-14.3
		c-0.1-4.2,1-7.9,3.3-10.8c2.3-2.9,6.1-5.2,11.7-6.7c5.5-1.5,13.2-2.3,23-2.3h13.9V153.1L960.9,153.1z M836.6,114.5
		c0-10.1-1.5-19.2-4.5-27.6c-3-8.3-7.3-15.5-12.8-21.7c-5.6-6.1-12.3-10.8-20.1-14.1c-7.9-3.4-16.6-5.1-26.4-5.1
		c-12.6,0-23.9,2.2-33.7,6.3c-9.8,4.1-18.2,9.7-24.9,17c-6.8,7.3-12,15.7-15.5,25.4c-3.5,9.6-5.3,20-5.3,31.1
		c0.1,9.2,1.6,17.7,4.8,25.4c3.1,7.7,7.6,14.4,13.4,20c5.8,5.6,12.7,10,20.5,13.1c7.9,3.1,16.6,4.6,26.2,4.7
		c7.5-0.1,14-1.2,19.7-3.5c5.6-2.2,10.2-5.1,13.7-8.6c3.5-3.5,5.9-7.2,6.9-11v19.7c0,7.6-0.9,14-3.8,19.4
		c-2.9,5.4-7.4,9.4-13.4,12.3c-6,2.9-13.7,4.3-23.1,4.3c-7.5,0-14.3-0.7-20.7-2.2c-6.3-1.4-11.9-3.4-16.8-5.9
		c-4.9-2.5-8.9-5.4-12-8.7h-1.7v17.7c0.1,6.3,2.4,12,6.9,17.1c4.6,5.1,10.8,9.2,18.9,12.4c8.1,3.1,17.9,4.7,28.4,4.7
		c10.4,0,19.2-1.3,27.3-4c8.1-2.6,15.3-6.2,21.4-10.9c6.1-4.7,11.3-10.1,15.4-16.3c9.1-13.8,11.2-26.8,11.2-43.1V114.5L836.6,114.5z
		 M768.5,80.6c5.8,0,10.8,1.3,15.2,4c10.5,6.4,14.9,20.9,14.9,32.5c0,12.7-5.7,27.6-16.9,34.5c-5,3.1-10.8,4.7-17.3,4.7
		c-6.2,0-11.6-1.6-16.3-4.7c-4.6-3-8.3-7.2-10.8-12.6c-2.6-5.3-3.9-11.4-3.9-18.2c0-7.9,1.6-14.8,4.6-20.9c3-6.1,7.2-10.8,12.4-14.2
		C755.8,82.4,761.8,80.6,768.5,80.6L768.5,80.6z M1281.6,106.7c0-9.4-1.8-17.8-5.2-25.3c-3.4-7.5-8-13.8-13.9-19
		c-5.8-5.3-12.5-9.3-20-12.1c-7.4-2.8-15.2-4.2-23.5-4.2c-11.2,0-21.4,2-30.8,5.9c-9.3,3.9-17.4,9.6-24.2,17
		c-6.9,7.4-12.1,16.3-15.8,26.8c-3.8,10.4-5.6,22.2-5.7,35.3c0.1,9.6,1.5,18.4,4.3,26.5c2.8,8.1,6.7,15.4,11.6,21.8
		c4.9,6.4,10.7,11.9,17.1,16.4c6.5,4.5,13.5,7.9,20.9,10.3c7.4,2.4,15.1,3.6,22.9,3.6c10.7-0.1,19.7-0.9,26.9-2.7
		c7.2-1.8,13-4.3,17.4-7.5c4.3-3.2,7.5-6.9,9.4-11.2c1.9-4.3,2.8-8.9,2.8-14v-12.2h-1.5c-4.2,3.8-9,6.8-14.3,9
		c-5.3,2.2-10.9,3.7-16.6,4.6c-5.7,0.9-11.4,1.3-16.9,1.3c-7.7,0-14.6-1.4-20.9-4s-11.3-6.3-15.4-11.1c-4-4.8-6.5-10.5-7.5-17.1
		h25.5c17.1,0,31.1-1.1,41.9-3.5c10.8-2.4,18.8-6.3,23.8-11.9C1279.2,123.8,1281.7,116.2,1281.6,106.7L1281.6,106.7z M1245.1,102.1
		c0,2.8-0.6,5.1-1.9,7c-1.3,1.9-3.6,3.5-6.9,4.6c-3.3,1.2-7.9,2.1-13.8,2.6c-5.9,0.6-13.5,0.8-22.6,0.8h-17.4l0.3-5.2
		c0.3-6.1,1.9-11.6,4.7-16.6c2.8-5,6.6-9,11.4-12.1c4.8-3,10.3-4.6,16.7-4.6c6,0,11.3,0.9,15.6,2.6c4.4,1.7,7.8,4.4,10.2,7.8
		C1243.9,92.5,1245.1,96.8,1245.1,102.1z"/>
	<path class="st1" d="M0,41.8v108.1c0,12.2,2.1,22.7,6.4,31.3c4.3,8.6,10.8,15.2,19.4,19.8c8.7,4.5,19.5,6.9,32.7,6.9
		c7.5-0.1,13.8-1.1,18.9-3.3c5-2.1,8.8-5.1,11.4-9c2.6-3.9,3.9-8.5,3.9-13.9v-13.9h-1.5c-3,1.9-6.9,3.3-11.7,4.1
		c-4.7,0.9-10.2,1.4-16.4,1.4c-5.2,0-9.7-0.9-13.3-2.8c-3.7-1.8-6.5-4.9-8.4-9c-1.9-4.2-2.9-9.6-2.9-16.3V84.1h31
		c5.3-0.1,9.7-1.1,13.1-3c3.4-1.9,6-4.3,7.6-7.2c1.6-2.8,2.5-5.6,2.5-8.4v-16H38.5V0h-9c-3.1,0-6.2,1.1-9.5,3.1
		c-3.2,2-6.1,4.6-8.8,7.6c-2.1,2.4-3.9,4.7-5.3,6.9c-1.4,2.1-2.6,4.3-3.5,6.6C1.6,26.4,1,29,0.6,31.8C0.2,34.7,0,38,0,41.8L0,41.8z
		 M661.3,206.2v-94c0-11.1-1.7-20.8-5.1-29c-3.4-8.3-8-15.2-13.9-20.6c-5.9-5.5-12.8-9.6-20.6-12.3c-7.8-2.8-16.3-4.1-25.3-4.1
		c-6.3,0-12.3,1.1-18,3.1c-5.7,2-10.9,4.9-15.5,8.5c-4.6,3.6-8.4,7.9-11.5,12.8c-5.6-7.7-12.5-13.6-20.4-17.8
		c-8-4.3-17-6.5-27.1-6.5c-11.8,0-22.1,1.7-30.8,5.1c-8.7,3.3-15.9,8.2-21.7,14.4c-5.7,6.3-10,13.7-12.8,22.4
		c-2.9,8.7-4.2,18.4-4.2,29.1v60.6c0,6,1.3,11.1,3.8,15.4c2.4,4.2,5.7,7.4,10,9.7c4.2,2.2,9,3.4,14.4,3.4H473v-92.2
		c0-7.2,1.2-13.2,3.5-18.2c2.3-5,5.4-8.8,9.4-11.3c4-2.5,8.4-3.9,13.5-3.9c5.7-0.1,10.8,1.3,15.1,3.8c4.4,2.6,7.7,6.6,10.2,12
		c2.5,5.4,3.7,12.4,3.7,21v60.3c0,6.2,1.2,11.4,3.6,15.6c2.3,4.2,5.7,7.4,9.9,9.6c4.2,2.1,9.2,3.2,15,3.2h10.4v-93.1
		c0-7.2,1.2-13.1,3.4-18c2.2-4.8,5.3-8.4,9.2-10.9c3.9-2.4,8.5-3.6,13.8-3.6c5.8-0.1,10.8,1.3,15,3.8c4.3,2.6,7.6,6.6,10.1,12
		c2.4,5.4,3.6,12.4,3.6,21v60.3c0,6.2,1,11.4,3,15.6c2,4.2,5.2,7.4,9.5,9.6c4.3,2.1,10,3.2,17,3.2H661.3L661.3,206.2z M402.6,152.8
		v-36c-0.1-13.4-1.9-24.6-5.4-33.7c-3.6-9-8.4-16.3-14.6-21.6c-6.1-5.3-13.2-9.1-21-11.5c-7.9-2.3-16.2-3.4-25-3.4
		c-10.2,0.1-19,1.3-26.2,3.5c-7.2,2.3-13.1,5.3-17.6,9.1c-4.5,3.8-7.8,7.9-9.9,12.3c-2.1,4.5-3.1,8.9-3.1,13.3v12.5h1.5
		c1.4-1.8,3.5-3.8,6.2-5.9c2.7-2.1,6.1-4,10.2-5.8c4-1.8,8.8-3.3,14.4-4.5c5.5-1.1,11.8-1.8,18.8-1.8c7.7-0.1,14,0.8,19,2.6
		c5,1.7,8.7,4.7,11,8.9c2.4,4.2,3.6,10,3.6,17.2v2h-13.6c-14.3,0-26.4,1.3-36.3,3.7c-9.9,2.5-18,5.9-24,10.3
		c-6.1,4.4-10.5,9.6-13.3,15.6c-2.8,5.9-4.1,12.4-4.1,19.4c0,7.2,1.5,13.8,4.6,19.9c3,6,7.2,11.3,12.8,15.7
		c5.5,4.4,12.1,7.9,19.8,10.3c7.6,2.5,16.1,3.7,25.4,3.7h7.8c8.7-0.1,16.7-1.4,23.9-4.1c7.2-2.7,13.4-6.5,18.7-11.5
		c5.3-4.9,9.3-10.8,12.2-17.7C401.2,168.7,402.6,161.1,402.6,152.8L402.6,152.8z M364.7,153.1c0,8-2,14-6.1,18c-4.1,4-10.4,6-18.8,6
		c-8.6-0.1-15.2-1.8-19.9-5.1c-4.6-3.4-7-8.2-7-14.3c-0.1-4.2,1-7.9,3.3-10.8c2.3-2.9,6.1-5.2,11.7-6.7c5.5-1.5,13.2-2.3,23-2.3
		h13.9V153.1L364.7,153.1z M249.4,106.7c0-9.4-1.8-17.8-5.2-25.3c-3.4-7.4-8-13.8-13.9-19c-5.8-5.3-12.5-9.3-20-12.1
		c-7.4-2.8-15.3-4.2-23.5-4.2c-11.2,0-21.4,2.1-30.8,6c-9.3,3.9-17.4,9.6-24.2,17c-6.9,7.4-12.1,16.3-15.8,26.8
		c-3.8,10.4-5.6,22.2-5.7,35.3c0.1,9.6,1.4,18.4,4.2,26.5c2.8,8.1,6.7,15.4,11.6,21.8c4.9,6.4,10.7,11.9,17.1,16.4
		c6.5,4.5,13.5,7.9,20.9,10.3c7.4,2.4,15,3.6,22.9,3.6c10.7-0.1,19.6-0.9,27-2.7c7.2-1.8,13-4.3,17.4-7.5c4.3-3.2,7.5-6.9,9.4-11.2
		c1.9-4.3,2.8-8.9,2.8-14v-12.2h-1.4c-4.2,3.8-9,6.8-14.3,9c-5.3,2.2-10.9,3.7-16.6,4.5c-5.8,0.9-11.4,1.3-16.8,1.3
		c-7.7-0.1-14.6-1.4-20.9-4c-6.3-2.6-11.4-6.3-15.4-11.1c-4-4.8-6.5-10.5-7.5-17.1h25.5c17.1,0.1,31.1-1.1,41.9-3.5
		c10.8-2.4,18.8-6.3,23.8-11.9C246.9,123.7,249.5,116.2,249.4,106.7L249.4,106.7z M212.9,102c0.1,2.8-0.6,5.1-1.9,7
		c-1.3,1.9-3.6,3.5-6.9,4.6c-3.3,1.2-7.9,2.1-13.8,2.6c-5.9,0.6-13.5,0.8-22.6,0.8h-17.4l0.3-5.2c0.4-6.1,1.9-11.6,4.7-16.6
		c2.8-5,6.6-9,11.4-12.1c4.8-3,10.3-4.6,16.7-4.7c6,0,11.2,0.9,15.6,2.6c4.4,1.7,7.8,4.3,10.2,7.8C211.7,92.5,212.9,96.8,212.9,102z
		"/>
	<path class="st2" d="M1535.7,256.6h-166.4c-24.8,0-45-20.2-45-45V45c0-24.9,20.1-45,45-45h166.4c24.8,0,45,20.2,45,45v166.6
		C1580.7,236.5,1560.5,256.6,1535.7,256.6z"/>
	<path class="st3" d="M1406.1,207.2c8.5,10.2,21,16,34.3,16c24.7,0,44.8-20.1,44.8-44.8v-74.9c0-4.6-3.8-8.4-8.4-8.4
		c-4.6,0-8.4,3.8-8.4,8.4v36.6c0,2.1-1.7,3.7-3.7,3.7c-2.1,0-3.7-1.7-3.7-3.7V74.7c0-4.6-3.8-8.4-8.4-8.4c-4.6,0-8.4,3.8-8.4,8.4
		v58.4c0,2.1-1.7,3.7-3.7,3.7c-2.1,0-3.7-1.7-3.7-3.7V64.6c0-4.6-3.8-8.4-8.4-8.4c-4.6,0-8.4,3.8-8.4,8.4v68.4
		c0,2.1-1.7,3.7-3.7,3.7c-2.1,0-3.7-1.7-3.7-3.7V74.7c0-4.6-3.8-8.4-8.4-8.4c-4.6,0-8.4,3.8-8.4,8.4v62.1l30,35.8
		c0.7,0.8,1.7,1.2,2.7,1.2c1,0,2-0.4,2.7-1.2l9.9-11.8c3.3-3.9,9.2-4.4,13.1-1.1c3.9,3.3,4.4,9.2,1.1,13.1l-22.7,27.1
		c-1,1.2-2.6,1.8-4.2,1.8c-1.6,0-3.2-0.6-4.2-1.8l-50-59.7c-3.3-3.9-9.2-4.4-13.1-1.1c-3.9,3.3-4.4,9.2-1.1,13.1L1406.1,207.2
		L1406.1,207.2z M1499,184.4c-2.4,2.9-5.1,5.4-8.1,7.5c1.2-4.3,1.8-8.9,1.8-13.5l0-126.6c0-4.6,3.8-8.4,8.4-8.4
		c4.6,0,8.4,3.8,8.4,8.4v91.1l21.5-25.7c3.3-3.9,9.2-4.4,13.1-1.1c3.9,3.3,4.4,9.2,1.1,13.1L1499,184.4L1499,184.4z M1444.1,61.2
		v-9.4c0-4.6,3.8-8.4,8.4-8.4c4.6,0,8.4,3.8,8.4,8.4v9.4c-2.4-1.5-5.3-2.4-8.4-2.4C1449.4,58.8,1446.5,59.7,1444.1,61.2L1444.1,61.2
		z M1468.4,90.1V41.8c0-4.6,3.8-8.4,8.4-8.4c4.6,0,8.4,3.8,8.4,8.4v48.3c-2.4-1.5-5.3-2.4-8.4-2.4
		C1473.7,87.7,1470.8,88.6,1468.4,90.1z"/>
</g>
</svg>
